<?xml version="1.0" encoding="UTF-8" standalone="no"?>
<svg width="11.2889mm" height="11.2889mm"
 viewBox="0 0 32 32"
 xmlns="http://www.w3.org/2000/svg" xmlns:xlink="http://www.w3.org/1999/xlink"  version="1.2" baseProfile="tiny">
<title>Qt SVG Document</title>
<desc>Generated with Qt</desc>
<defs>
</defs>
<g fill="none" stroke="black" stroke-width="1" fill-rule="evenodd" stroke-linecap="square" stroke-linejoin="bevel" >

<g fill="#ffffff" fill-opacity="1" stroke="#000000" stroke-opacity="1" stroke-width="1.13386" stroke-linecap="square" stroke-linejoin="bevel" transform="matrix(1,0,0,1,0,0)"
font-family=".AppleSystemUIFont" font-size="13" font-weight="400" font-style="normal" 
>
<path vector-effect="none" fill-rule="evenodd" d="M21.6693,16 C21.6693,19.1311 19.1311,21.6693 16,21.6693 C12.8689,21.6693 10.3307,19.1311 10.3307,16 C10.3307,12.8689 12.8689,10.3307 16,10.3307 C19.1311,10.3307 21.6693,12.8689 21.6693,16 "/>
</g>

<g fill="#ffffff" fill-opacity="1" stroke="#000000" stroke-opacity="1" stroke-width="1.13386" stroke-linecap="square" stroke-linejoin="bevel" transform="matrix(1,0,0,1,16,16)"
font-family=".AppleSystemUIFont" font-size="13" font-weight="400" font-style="normal" 
>
</g>

<g fill="#000000" fill-opacity="1" stroke="none" transform="matrix(0.0517744,0,0,0.0517744,13.1654,13.1654)"
font-family=".AppleSystemUIFont" font-size="13" font-weight="400" font-style="normal" 
>
<path vector-effect="none" fill-rule="nonzero" d="M90.168,96.942 L13.447,20.221 L19.811,13.857 L96.533,90.578 L90.169,96.942 L90.168,96.942"/>
</g>

<g fill="#000000" fill-opacity="1" stroke="none" transform="matrix(0.0517744,0,0,0.0517744,13.1654,13.1654)"
font-family=".AppleSystemUIFont" font-size="13" font-weight="400" font-style="normal" 
>
<path vector-effect="none" fill-rule="nonzero" d="M19.811,96.588 L13.27,90.047 L89.991,13.326 L96.531,19.867 L19.811,96.588"/>
</g>

<g fill="#000000" fill-opacity="1" stroke="none" transform="matrix(0.0517744,0,0,0.0517744,13.1654,13.1654)"
font-family=".AppleSystemUIFont" font-size="13" font-weight="400" font-style="normal" 
>
<path vector-effect="none" fill-rule="nonzero" d="M109,59.5 L0.5,59.5 L0.5,50.5 L109,50.5 L109,59.5"/>
</g>

<g fill="#000000" fill-opacity="1" stroke="none" transform="matrix(0.0517744,0,0,0.0517744,13.1654,13.1654)"
font-family=".AppleSystemUIFont" font-size="13" font-weight="400" font-style="normal" 
>
<path vector-effect="none" fill-rule="nonzero" d="M59,109 L49.75,109 L49.75,0.5 L59,0.5 L59,109"/>
</g>

<g fill="#ffffff" fill-opacity="1" stroke="#000000" stroke-opacity="1" stroke-width="1.13386" stroke-linecap="square" stroke-linejoin="bevel" transform="matrix(1,0,0,1,16,16)"
font-family=".AppleSystemUIFont" font-size="13" font-weight="400" font-style="normal" 
>
</g>

<g fill="#ffffff" fill-opacity="1" stroke="#000000" stroke-opacity="1" stroke-width="1.13386" stroke-linecap="square" stroke-linejoin="bevel" transform="matrix(1,0,0,1,0,0)"
font-family=".AppleSystemUIFont" font-size="13" font-weight="400" font-style="normal" 
>
</g>
</g>
</svg>
